<svg width="13" height="17" fill="none" xmlns="http://www.w3.org/2000/svg"><path d="M7.509 11.739c-.945-.073-1.342-.542-2.083-.992-.408 2.137-.905 4.186-2.38 5.256-.455-3.23.668-5.656 1.19-8.231-.89-1.498.107-4.511 1.983-3.769 2.31.913-1.999 5.568.893 6.15 3.02.606 4.252-5.24 2.38-7.141-2.706-2.746-7.875-.063-7.24 3.867.155.961 1.148 1.253.397 2.578C.917 9.074.401 7.708.467 5.887.575 2.908 3.145.822 5.724.533c3.26-.365 6.321 1.197 6.744 4.265.475 3.462-1.472 7.21-4.96 6.942z" fill="#F1F2F2"/></svg>