<svg width="19" height="19" fill="none" xmlns="http://www.w3.org/2000/svg"><path d="M9.498.27C5.716.27 2.124-.067.752 3.454.185 4.908.268 6.797.268 9.501c0 2.373-.076 4.603.484 6.046 1.369 3.523 4.99 3.185 8.744 3.185 3.622 0 7.356.377 8.745-3.185.567-1.469.484-3.33.484-6.046 0-3.606.199-5.934-1.55-7.682C15.405.048 13.009.269 9.494.269h.004zM8.67 1.933c7.89-.012 8.894-.89 8.34 11.295-.197 4.31-3.479 3.837-7.512 3.837-7.354 0-7.566-.21-7.566-7.568 0-7.443.584-7.56 6.738-7.566v.002zm5.754 1.533a1.107 1.107 0 100 2.214 1.107 1.107 0 000-2.214zM9.498 4.76a4.74 4.74 0 000 9.48 4.739 4.739 0 004.739-4.739 4.74 4.74 0 00-4.74-4.74zm0 1.664c4.068 0 4.073 6.154 0 6.154-4.067 0-4.073-6.154 0-6.154z" fill="#fff"/></svg>