<svg width="18" height="11" fill="none" xmlns="http://www.w3.org/2000/svg"><path fill-rule="evenodd" clip-rule="evenodd" d="M9.028 9.982h.98s.297-.032.449-.195c.139-.15.134-.431.134-.431s-.019-1.317.592-1.51c.603-.191 1.376 1.272 2.196 1.834.62.426 1.09.333 1.09.333l2.193-.03s1.146-.071.603-.973c-.045-.074-.317-.667-1.63-1.886-1.375-1.275-1.19-1.069.465-3.276 1.008-1.343 1.411-2.164 1.285-2.515-.12-.335-.861-.246-.861-.246l-2.468.015s-.183-.025-.319.056c-.132.08-.218.265-.218.265s-.39 1.04-.911 1.924c-1.1 1.866-1.539 1.965-1.718 1.85-.418-.271-.314-1.086-.314-1.665 0-1.808.274-2.562-.534-2.757C9.774.71 9.576.667 8.89.66 8.01.65 7.264.663 6.842.87c-.28.137-.497.443-.365.461.163.022.532.1.728.366.253.344.244 1.117.244 1.117s.146 2.129-.339 2.393c-.333.182-.789-.188-1.769-1.882-.502-.867-.88-1.825-.88-1.825s-.074-.18-.204-.275a1.024 1.024 0 00-.38-.153l-2.345.015s-.352.01-.481.163c-.115.136-.01.418-.01.418s1.837 4.295 3.916 6.46c1.906 1.985 4.07 1.854 4.07 1.854z" fill="#fff"/></svg>